{"accessors" : [{"bufferView" : 0, "byteOffset" : 0, "componentType" : 5123, "count" : 3786, "type" : "SCALAR", "max" : [1241], "min" : [0]}, {"bufferView" : 1, "byteOffset" : 0, "componentType" : 5126, "count" : 1242, "type" : "VEC3", "max" : [0.1126059964299202, 0.16582100093364716, 0.0903099998831749], "min" : [-0.11309800297021866, 0.02225000038743019, -0.284417986869812], "name" : "POSITION"}, {"bufferView" : 1, "byteOffset" : 12, "componentType" : 5126, "count" : 1242, "type" : "VEC3", "max" : [1.0000044107437134, 0.9999460577964783, 1.0000044107437134], "min" : [-1.0000044107437134, -0.9999955892562866, -0.9996767044067383], "name" : "NORMAL"}, {"bufferView" : 0, "byteOffset" : 7572, "componentType" : 5123, "count" : 90, "type" : "SCALAR", "max" : [39], "min" : [0]}, {"bufferView" : 2, "byteOffset" : 0, "componentType" : 5126, "count" : 40, "type" : "VEC3", "max" : [0.08483800292015076, 0.13730600476264954, 0.08108600229024887], "min" : [-0.08414799720048904, 0.06865199655294418, -0.0778219997882843], "name" : "POSITION"}, {"bufferView" : 2, "byteOffset" : 12, "componentType" : 5126, "count" : 40, "type" : "VEC3", "max" : [1.0000044107437134, 0.44268998503685, 0.8966796398162842], "min" : [-1.0000044107437134, -0, 0], "name" : "NORMAL"}, {"bufferView" : 0, "byteOffset" : 7752, "componentType" : 5123, "count" : 25260, "type" : "SCALAR", "max" : [11091], "min" : [0]}, {"bufferView" : 3, "byteOffset" : 0, "componentType" : 5126, "count" : 11092, "type" : "VEC3", "max" : [0.1031859964132309, 0.1674869954586029, 0.09238599985837936], "min" : [-0.10203299671411514, 0.006905000191181898, -0.2885409891605377], "name" : "POSITION"}, {"bufferView" : 3, "byteOffset" : 12, "componentType" : 5126, "count" : 11092, "type" : "VEC3", "max" : [1.0000044107437134, 0.9999975562095642, 0.9992357492446899], "min" : [-1.0000044107437134, -0.9999975562095642, -0.9992357492446899], "name" : "NORMAL"}, {"bufferView" : 0, "byteOffset" : 58272, "componentType" : 5123, "count" : 468, "type" : "SCALAR", "max" : [277], "min" : [0]}, {"bufferView" : 4, "byteOffset" : 0, "componentType" : 5126, "count" : 278, "type" : "VEC3", "max" : [0.09065499901771545, 0.19508400559425354, -0.026048999279737473], "min" : [-0.09423299878835678, 0.06889999657869339, -0.3117389976978302], "name" : "POSITION"}, {"bufferView" : 4, "byteOffset" : 12, "componentType" : 5126, "count" : 278, "type" : "VEC3", "max" : [1.0000044107437134, 0.9999716281890869, 1.000002384185791], "min" : [-1.0000044107437134, -1.0000044107437134, -1.000002384185791], "name" : "NORMAL"}], "asset" : {"generator" : "Aspose.3D 24.2.0", "version" : "2.0"}, "buffers" : [{"uri" : "buffer.bin", "byteLength" : 362876}], "bufferViews" : [{"buffer" : 0, "byteOffset" : 0, "byteLength" : 59208, "target" : 34963}, {"buffer" : 0, "byteOffset" : 59212, "byteLength" : 29808, "byteStride" : 24, "target" : 34962}, {"buffer" : 0, "byteOffset" : 89024, "byteLength" : 960, "byteStride" : 24, "target" : 34962}, {"buffer" : 0, "byteOffset" : 89988, "byteLength" : 266208, "byteStride" : 24, "target" : 34962}, {"buffer" : 0, "byteOffset" : 356200, "byteLength" : 6672, "byteStride" : 24, "target" : 34962}], "meshes" : [{"primitives" : [{"attributes" : {"POSITION" : 1, "NORMAL" : 2}, "indices" : 0, "mode" : 4}], "name" : ""}, {"primitives" : [{"attributes" : {"POSITION" : 4, "NORMAL" : 5}, "indices" : 3, "mode" : 4}], "name" : ""}, {"primitives" : [{"attributes" : {"POSITION" : 7, "NORMAL" : 8}, "indices" : 6, "mode" : 4}], "name" : ""}, {"primitives" : [{"attributes" : {"POSITION" : 10, "NORMAL" : 11}, "indices" : 9, "mode" : 4}], "name" : ""}], "nodes" : [{"mesh" : 0, "name" : "Plano.003_Plano.004_RedPaint"}, {"mesh" : 1, "name" : "Plano.003_Plano.004_BlackWindow"}, {"mesh" : 2, "name" : "Plano.003_Plano.004_BlackMatte"}, {"mesh" : 3, "name" : "Plano.003_Plano.004_RedPaint.001"}], "scene" : 0, "scenes" : [{"nodes" : [0, 1, 2, 3]}]}